<svg xmlns="http://www.w3.org/2000/svg" version="1.1" xmlns:xlink="http://www.w3.org/1999/xlink" xmlns:svgjs="http://svgjs.dev/svgjs" width="1440" height="560" preserveAspectRatio="none" viewBox="0 0 1440 560"><g mask="url(&quot;#SvgjsMask1019&quot;)" fill="none"><path d="M724.36 573.57C847.98 557.06 917.28 272.85 1121.4 271.53 1325.53 270.21 1415.32 382.47 1518.45 383.53" stroke="rgba(51, 121, 194, 0.06)" stroke-width="2"></path><path d="M347.77 651.48C502.85 588.29 513.14 127.6 742.23 110.1 971.31 92.6 939.45 180.1 1136.68 180.1 1333.91 180.1 1430.99 110.37 1531.14 110.1" stroke="rgba(51, 121, 194, 0.06)" stroke-width="2"></path><path d="M343.62 595.25C502.05 588.44 607.73 331.62 916.54 323 1225.36 314.38 1338.56 135.07 1489.47 132.6" stroke="rgba(51, 121, 194, 0.06)" stroke-width="2"></path><path d="M510.33 665.87C672.08 644.17 760.76 272.49 1029.47 270.09 1298.19 267.69 1415.55 386.96 1548.62 387.69" stroke="rgba(51, 121, 194, 0.06)" stroke-width="2"></path><path d="M315.64 612.47C480.49 606.8 591.78 359.14 920.31 348.51 1248.84 337.88 1361.29 101.49 1524.98 96.51" stroke="rgba(51, 121, 194, 0.06)" stroke-width="2"></path></g><defs><mask id="SvgjsMask1019"><rect width="1440" height="560" fill="#ffffff"></rect></mask></defs></svg>